<?xml version="1.0" encoding="UTF-8" standalone="no"?>
<!-- Created with Inkscape (http://www.inkscape.org/) -->

<svg
   xmlns:dc="http://purl.org/dc/elements/1.1/"
   xmlns:cc="http://creativecommons.org/ns#"
   xmlns:rdf="http://www.w3.org/1999/02/22-rdf-syntax-ns#"
   xmlns:svg="http://www.w3.org/2000/svg"
   xmlns="http://www.w3.org/2000/svg"
   xmlns:xlink="http://www.w3.org/1999/xlink"
   xmlns:sodipodi="http://sodipodi.sourceforge.net/DTD/sodipodi-0.dtd"
   xmlns:inkscape="http://www.inkscape.org/namespaces/inkscape"
   version="1.0"
   width="48"
   height="48"
   id="svg3400"
   inkscape:version="0.47 r22583"
   sodipodi:docname="application-x-nzb.svg">
  <metadata
     id="metadata74">
    <rdf:RDF>
      <cc:Work
         rdf:about="">
        <dc:format>image/svg+xml</dc:format>
        <dc:type
           rdf:resource="http://purl.org/dc/dcmitype/StillImage" />
      </cc:Work>
    </rdf:RDF>
  </metadata>
  <sodipodi:namedview
     pagecolor="#ffffff"
     bordercolor="#666666"
     borderopacity="1"
     objecttolerance="10"
     gridtolerance="10"
     guidetolerance="10"
     inkscape:pageopacity="0"
     inkscape:pageshadow="2"
     inkscape:window-width="1440"
     inkscape:window-height="825"
     id="namedview72"
     showgrid="true"
     inkscape:zoom="19.666667"
     inkscape:cx="22.468696"
     inkscape:cy="27.038391"
     inkscape:window-x="0"
     inkscape:window-y="24"
     inkscape:window-maximized="1"
     inkscape:current-layer="svg3400">
    <inkscape:grid
       type="xygrid"
       id="grid2890"
       empspacing="5"
       visible="true"
       enabled="true"
       snapvisiblegridlinesonly="true" />
  </sodipodi:namedview>
  <defs
     id="defs3402">
    <inkscape:perspective
       sodipodi:type="inkscape:persp3d"
       inkscape:vp_x="0 : 24 : 1"
       inkscape:vp_y="0 : 1000 : 0"
       inkscape:vp_z="48 : 24 : 1"
       inkscape:persp3d-origin="24 : 16 : 1"
       id="perspective76" />
    <linearGradient
       id="linearGradient5048">
      <stop
         id="stop5050"
         style="stop-color:black;stop-opacity:0"
         offset="0" />
      <stop
         id="stop5056"
         style="stop-color:black;stop-opacity:1"
         offset="0.5" />
      <stop
         id="stop5052"
         style="stop-color:black;stop-opacity:0"
         offset="1" />
    </linearGradient>
    <linearGradient
       x1="302.85715"
       y1="366.64789"
       x2="302.85715"
       y2="609.50507"
       id="linearGradient3687"
       xlink:href="#linearGradient5048"
       gradientUnits="userSpaceOnUse"
       gradientTransform="matrix(0.06732488,0,0,0.01470022,-0.3411391,37.040146)" />
    <radialGradient
       cx="605.71429"
       cy="486.64789"
       r="117.14286"
       fx="605.71429"
       fy="486.64789"
       id="radialGradient3684"
       xlink:href="#linearGradient5060"
       gradientUnits="userSpaceOnUse"
       gradientTransform="matrix(-0.02303994,0,0,0.01470022,21.62311,37.040176)" />
    <linearGradient
       id="linearGradient5060">
      <stop
         id="stop5062"
         style="stop-color:black;stop-opacity:1"
         offset="0" />
      <stop
         id="stop5064"
         style="stop-color:black;stop-opacity:0"
         offset="1" />
    </linearGradient>
    <radialGradient
       cx="605.71429"
       cy="486.64789"
       r="117.14286"
       fx="605.71429"
       fy="486.64789"
       id="radialGradient3681"
       xlink:href="#linearGradient5060"
       gradientUnits="userSpaceOnUse"
       gradientTransform="matrix(0.02303995,0,0,0.01470022,26.360882,37.040176)" />
    <linearGradient
       id="linearGradient3104">
      <stop
         id="stop3106"
         style="stop-color:#aaa;stop-opacity:1"
         offset="0" />
      <stop
         id="stop3108"
         style="stop-color:#c8c8c8;stop-opacity:1"
         offset="1" />
    </linearGradient>
    <linearGradient
       x1="-51.786404"
       y1="50.786446"
       x2="-51.786404"
       y2="2.9062471"
       id="linearGradient3678"
       xlink:href="#linearGradient3104"
       gradientUnits="userSpaceOnUse"
       gradientTransform="matrix(0.8074968,0,0,0.8948322,59.410232,-2.9805533)" />
    <linearGradient
       id="linearGradient3600">
      <stop
         id="stop3602"
         style="stop-color:#f4f4f4;stop-opacity:1"
         offset="0" />
      <stop
         id="stop3604"
         style="stop-color:#dbdbdb;stop-opacity:1"
         offset="1" />
    </linearGradient>
    <linearGradient
       x1="25.132275"
       y1="0.98520643"
       x2="25.132275"
       y2="47.013336"
       id="linearGradient3676"
       xlink:href="#linearGradient3600"
       gradientUnits="userSpaceOnUse"
       gradientTransform="matrix(1,0,0,0.9561695,-1.0064697e-7,-1.914922)" />
    <radialGradient
       cx="102"
       cy="112.3047"
       r="139.55859"
       id="XMLID_8_"
       gradientUnits="userSpaceOnUse">
      <stop
         id="stop41"
         style="stop-color:#b7b8b9;stop-opacity:1"
         offset="0" />
      <stop
         id="stop47"
         style="stop-color:#ececec;stop-opacity:1"
         offset="0.18851049" />
      <stop
         id="stop49"
         style="stop-color:#fafafa;stop-opacity:0"
         offset="0.25718147" />
      <stop
         id="stop51"
         style="stop-color:white;stop-opacity:0"
         offset="0.30111277" />
      <stop
         id="stop53"
         style="stop-color:#fafafa;stop-opacity:0"
         offset="0.53130001" />
      <stop
         id="stop55"
         style="stop-color:#ebecec;stop-opacity:0"
         offset="0.84490001" />
      <stop
         id="stop57"
         style="stop-color:#e1e2e3;stop-opacity:0"
         offset="1" />
    </radialGradient>
    <radialGradient
       cx="102"
       cy="112.3047"
       r="139.55859"
       id="radialGradient3673"
       xlink:href="#XMLID_8_"
       gradientUnits="userSpaceOnUse"
       gradientTransform="matrix(0.3617022,0,0,-0.3907784,0.8510637,47.517004)" />
    <linearGradient
       id="linearGradient3211">
      <stop
         id="stop3213"
         style="stop-color:white;stop-opacity:1"
         offset="0" />
      <stop
         id="stop3215"
         style="stop-color:white;stop-opacity:0"
         offset="1" />
    </linearGradient>
    <linearGradient
       x1="24"
       y1="1.9999999"
       x2="24"
       y2="46.01725"
       id="linearGradient3670"
       xlink:href="#linearGradient3211"
       gradientUnits="userSpaceOnUse"
       gradientTransform="matrix(1,0,0,0.9777778,0,-0.9666693)" />
    <filter
       x="-0.14846256"
       y="-0.16434373"
       width="1.2969251"
       height="1.3286875"
       color-interpolation-filters="sRGB"
       id="filter3212">
      <feGaussianBlur
         stdDeviation="0.77391625"
         id="feGaussianBlur3214" />
    </filter>
    <linearGradient
       id="linearGradient8589">
      <stop
         id="stop8591"
         style="stop-color:#fefefe;stop-opacity:1"
         offset="0" />
      <stop
         id="stop8593"
         style="stop-color:#cbcbcb;stop-opacity:1"
         offset="1" />
    </linearGradient>
    <linearGradient
       x1="32.892288"
       y1="8.0590115"
       x2="36.358372"
       y2="5.4565363"
       id="linearGradient3666"
       xlink:href="#linearGradient8589"
       gradientUnits="userSpaceOnUse"
       gradientTransform="matrix(0.9976985,0,0,1.0406866,0.1638029,-1.1057939)" />
    <linearGradient
       id="linearGradient5105-262-943-861">
      <stop
         id="stop2487"
         style="stop-color:#0d0d0d;stop-opacity:1"
         offset="0" />
      <stop
         id="stop2489"
         style="stop-color:#0d0d0d;stop-opacity:0"
         offset="1" />
    </linearGradient>
    <radialGradient
       cx="11.25"
       cy="19.03125"
       r="8.0625"
       fx="11.25"
       fy="19.03125"
       id="radialGradient3663"
       xlink:href="#linearGradient5105-262-943-861"
       gradientUnits="userSpaceOnUse"
       gradientTransform="matrix(1.4883719,0,0,0.4093031,7.2558166,25.910457)" />
    <linearGradient
       id="linearGradient2602">
      <stop
         id="stop2604"
         style="stop-color:#699536;stop-opacity:0;"
         offset="0" />
      <stop
         id="stop3394"
         style="stop-color:#699536;stop-opacity:1;"
         offset="0.30000001" />
      <stop
         id="stop2608"
         style="stop-color:#699536;stop-opacity:1;"
         offset="1" />
    </linearGradient>
    <linearGradient
       x1="16.712811"
       y1="10.28527"
       x2="16.712811"
       y2="33.62434"
       id="linearGradient3660"
       xlink:href="#linearGradient2602"
       gradientUnits="userSpaceOnUse"
       gradientTransform="translate(0,1.0000001)" />
    <linearGradient
       id="linearGradient2610">
      <stop
         id="stop2612"
         style="stop-color:#d7e866;stop-opacity:0;"
         offset="0" />
      <stop
         id="stop2614"
         style="stop-color:#c4df49;stop-opacity:1;"
         offset="0.29252622" />
      <stop
         id="stop2618"
         style="stop-color:#8cab2a;stop-opacity:1;"
         offset="1" />
    </linearGradient>
    <linearGradient
       x1="50.233418"
       y1="20.225071"
       x2="0.81572169"
       y2="20.709501"
       id="linearGradient3658"
       xlink:href="#linearGradient2610"
       gradientUnits="userSpaceOnUse"
       gradientTransform="matrix(0,-0.4917505,-0.482368,0,35.524239,35.407851)" />
    <linearGradient
       id="linearGradient31925">
      <stop
         id="stop31927"
         style="stop-color:white;stop-opacity:0"
         offset="0" />
      <stop
         id="stop31929"
         style="stop-color:white;stop-opacity:1"
         offset="0.19689704" />
      <stop
         id="stop31931"
         style="stop-color:white;stop-opacity:0"
         offset="1" />
    </linearGradient>
    <linearGradient
       x1="2.9513271"
       y1="25.410501"
       x2="57.726395"
       y2="25.410501"
       id="linearGradient3655"
       xlink:href="#linearGradient31925"
       gradientUnits="userSpaceOnUse"
       gradientTransform="matrix(0,0.5703354,-0.5568703,0,38.636916,10.134416)" />
    <linearGradient
       inkscape:collect="always"
       xlink:href="#linearGradient31925"
       id="linearGradient2883"
       gradientUnits="userSpaceOnUse"
       gradientTransform="matrix(0,0.5703354,-0.55687498,0,38.700039,13.102363)"
       x1="2.9513271"
       y1="25.410501"
       x2="57.726395"
       y2="25.410501" />
    <linearGradient
       inkscape:collect="always"
       xlink:href="#linearGradient2610"
       id="linearGradient2886"
       gradientUnits="userSpaceOnUse"
       gradientTransform="matrix(0,-0.4917505,-0.482368,0,35.531524,38.400566)"
       x1="50.233418"
       y1="20.225071"
       x2="0.81572169"
       y2="20.709501" />
    <linearGradient
       inkscape:collect="always"
       xlink:href="#linearGradient2602"
       id="linearGradient2888"
       gradientUnits="userSpaceOnUse"
       gradientTransform="translate(0.0072853,3.9927151)"
       x1="16.712811"
       y1="10.28527"
       x2="16.712811"
       y2="33.62434" />
    <radialGradient
       inkscape:collect="always"
       xlink:href="#linearGradient5105-262-943-861"
       id="radialGradient2891"
       gradientUnits="userSpaceOnUse"
       gradientTransform="matrix(1.4883719,0,0,0.4093031,7.2558166,26.910457)"
       cx="11.25"
       cy="19.03125"
       fx="11.25"
       fy="19.03125"
       r="8.0625" />
    <linearGradient
       inkscape:collect="always"
       xlink:href="#linearGradient8589"
       id="linearGradient2894"
       gradientUnits="userSpaceOnUse"
       gradientTransform="matrix(0.9976985,0,0,1.0406866,0.1638029,-1.1057939)"
       x1="32.892288"
       y1="8.0590115"
       x2="36.358372"
       y2="5.4565363" />
    <linearGradient
       inkscape:collect="always"
       xlink:href="#linearGradient3211"
       id="linearGradient2898"
       gradientUnits="userSpaceOnUse"
       gradientTransform="matrix(1,0,0,0.9777778,0,-0.9666693)"
       x1="24"
       y1="1.9999999"
       x2="24"
       y2="46.01725" />
    <radialGradient
       inkscape:collect="always"
       xlink:href="#XMLID_8_"
       id="radialGradient2901"
       gradientUnits="userSpaceOnUse"
       gradientTransform="matrix(0.3617022,0,0,-0.3907784,0.8510637,47.517004)"
       cx="102"
       cy="112.3047"
       r="139.55859" />
    <linearGradient
       inkscape:collect="always"
       xlink:href="#linearGradient3600"
       id="linearGradient2904"
       gradientUnits="userSpaceOnUse"
       gradientTransform="matrix(1,0,0,0.9561695,-1.0064697e-7,-1.914922)"
       x1="25.132275"
       y1="0.98520643"
       x2="25.132275"
       y2="47.013336" />
    <linearGradient
       inkscape:collect="always"
       xlink:href="#linearGradient3104"
       id="linearGradient2906"
       gradientUnits="userSpaceOnUse"
       gradientTransform="matrix(0.8074968,0,0,0.8948322,59.410232,-2.9805533)"
       x1="-51.786404"
       y1="50.786446"
       x2="-51.786404"
       y2="2.9062471" />
    <radialGradient
       inkscape:collect="always"
       xlink:href="#linearGradient5060"
       id="radialGradient2909"
       gradientUnits="userSpaceOnUse"
       gradientTransform="matrix(0.02303995,0,0,0.01470022,26.360882,37.040176)"
       cx="605.71429"
       cy="486.64789"
       fx="605.71429"
       fy="486.64789"
       r="117.14286" />
    <radialGradient
       inkscape:collect="always"
       xlink:href="#linearGradient5060"
       id="radialGradient2912"
       gradientUnits="userSpaceOnUse"
       gradientTransform="matrix(-0.02303994,0,0,0.01470022,21.62311,37.040176)"
       cx="605.71429"
       cy="486.64789"
       fx="605.71429"
       fy="486.64789"
       r="117.14286" />
    <linearGradient
       inkscape:collect="always"
       xlink:href="#linearGradient5048"
       id="linearGradient2915"
       gradientUnits="userSpaceOnUse"
       gradientTransform="matrix(0.06732488,0,0,0.01470022,-0.3411391,37.040146)"
       x1="302.85715"
       y1="366.64789"
       x2="302.85715"
       y2="609.50507" />
    <inkscape:perspective
       id="perspective2910"
       inkscape:persp3d-origin="0.5 : 0.33333333 : 1"
       inkscape:vp_z="1 : 0.5 : 1"
       inkscape:vp_y="0 : 1000 : 0"
       inkscape:vp_x="0 : 0.5 : 1"
       sodipodi:type="inkscape:persp3d" />
    <linearGradient
       x1="22.104254"
       y1="39.698696"
       x2="22.104254"
       y2="9.2626371"
       id="linearGradient2436"
       xlink:href="#linearGradient4338"
       gradientUnits="userSpaceOnUse"
       gradientTransform="matrix(0.9946067,0,0,1.440776,-0.3759013,-12.863089)" />
    <linearGradient
       id="linearGradient4338">
      <stop
         id="stop4340"
         style="stop-color:#8e8e8e;stop-opacity:1"
         offset="0" />
      <stop
         id="stop4342"
         style="stop-color:#b5b5b5;stop-opacity:1"
         offset="1" />
    </linearGradient>
    <linearGradient
       y2="9.2626371"
       x2="22.104254"
       y1="39.698696"
       x1="22.104254"
       gradientTransform="matrix(0.9946067,0,0,1.440776,-0.375901,-9.863089)"
       gradientUnits="userSpaceOnUse"
       id="linearGradient2919"
       xlink:href="#linearGradient4338"
       inkscape:collect="always" />
    <inkscape:perspective
       id="perspective2946"
       inkscape:persp3d-origin="0.5 : 0.33333333 : 1"
       inkscape:vp_z="1 : 0.5 : 1"
       inkscape:vp_y="0 : 1000 : 0"
       inkscape:vp_x="0 : 0.5 : 1"
       sodipodi:type="inkscape:persp3d" />
    <inkscape:perspective
       id="perspective2946-3"
       inkscape:persp3d-origin="0.5 : 0.33333333 : 1"
       inkscape:vp_z="1 : 0.5 : 1"
       inkscape:vp_y="0 : 1000 : 0"
       inkscape:vp_x="0 : 0.5 : 1"
       sodipodi:type="inkscape:persp3d" />
    <inkscape:perspective
       id="perspective2929"
       inkscape:persp3d-origin="0.5 : 0.33333333 : 1"
       inkscape:vp_z="1 : 0.5 : 1"
       inkscape:vp_y="0 : 1000 : 0"
       inkscape:vp_x="0 : 0.5 : 1"
       sodipodi:type="inkscape:persp3d" />
    <linearGradient
       x1="22.104254"
       y1="39.698696"
       x2="22.104254"
       y2="9.2626371"
       id="linearGradient2436-5"
       xlink:href="#linearGradient4338-9"
       gradientUnits="userSpaceOnUse"
       gradientTransform="matrix(0.9946067,0,0,1.440776,-0.3759013,-12.863089)" />
    <linearGradient
       id="linearGradient4338-9">
      <stop
         id="stop4340-4"
         style="stop-color:#8e8e8e;stop-opacity:1"
         offset="0" />
      <stop
         id="stop4342-8"
         style="stop-color:#b5b5b5;stop-opacity:1"
         offset="1" />
    </linearGradient>
    <inkscape:perspective
       id="perspective2946-7"
       inkscape:persp3d-origin="0.5 : 0.33333333 : 1"
       inkscape:vp_z="1 : 0.5 : 1"
       inkscape:vp_y="0 : 1000 : 0"
       inkscape:vp_x="0 : 0.5 : 1"
       sodipodi:type="inkscape:persp3d" />
    <inkscape:perspective
       id="perspective2960"
       inkscape:persp3d-origin="0.5 : 0.33333333 : 1"
       inkscape:vp_z="1 : 0.5 : 1"
       inkscape:vp_y="0 : 1000 : 0"
       inkscape:vp_x="0 : 0.5 : 1"
       sodipodi:type="inkscape:persp3d" />
    <linearGradient
       id="linearGradient3997">
      <stop
         id="stop3999"
         offset="0"
         style="stop-color:#404040;stop-opacity:1;" />
      <stop
         id="stop4001"
         offset="1"
         style="stop-color:#404040;stop-opacity:0" />
    </linearGradient>
    <inkscape:perspective
       id="perspective2872"
       inkscape:persp3d-origin="0.5 : 0.33333333 : 1"
       inkscape:vp_z="1 : 0.5 : 1"
       inkscape:vp_y="0 : 1000 : 0"
       inkscape:vp_x="0 : 0.5 : 1"
       sodipodi:type="inkscape:persp3d" />
    <linearGradient
       x1="22.104254"
       y1="39.698696"
       x2="22.104254"
       y2="9.2626371"
       id="linearGradient2436-3"
       xlink:href="#linearGradient4338-7"
       gradientUnits="userSpaceOnUse"
       gradientTransform="matrix(0.9946067,0,0,1.440776,-0.3759013,-12.863089)" />
    <linearGradient
       id="linearGradient4338-7">
      <stop
         id="stop4340-8"
         style="stop-color:#8e8e8e;stop-opacity:1"
         offset="0" />
      <stop
         id="stop4342-7"
         style="stop-color:#b5b5b5;stop-opacity:1"
         offset="1" />
    </linearGradient>
    <linearGradient
       y2="9.2626371"
       x2="22.104254"
       y1="39.698696"
       x1="22.104254"
       gradientTransform="matrix(0.9946067,0,0,1.440776,-0.375901,-5.863089)"
       gradientUnits="userSpaceOnUse"
       id="linearGradient2881"
       xlink:href="#linearGradient4338-7"
       inkscape:collect="always" />
    <inkscape:perspective
       id="perspective2978"
       inkscape:persp3d-origin="0.5 : 0.33333333 : 1"
       inkscape:vp_z="1 : 0.5 : 1"
       inkscape:vp_y="0 : 1000 : 0"
       inkscape:vp_x="0 : 0.5 : 1"
       sodipodi:type="inkscape:persp3d" />
    <linearGradient
       inkscape:collect="always"
       xlink:href="#linearGradient3997-7"
       id="linearGradient2946-4"
       gradientUnits="userSpaceOnUse"
       gradientTransform="matrix(0.8233023,0,0,0.63335129,4.1313299,8.514843)"
       x1="10.200356"
       y1="13.621533"
       x2="19.806957"
       y2="21.814098" />
    <linearGradient
       id="linearGradient3997-7">
      <stop
         id="stop3999-9"
         offset="0"
         style="stop-color:#404040;stop-opacity:0.78039217;" />
      <stop
         id="stop4001-7"
         offset="1"
         style="stop-color:#404040;stop-opacity:0" />
    </linearGradient>
    <inkscape:perspective
       id="perspective2946-6"
       inkscape:persp3d-origin="0.5 : 0.33333333 : 1"
       inkscape:vp_z="1 : 0.5 : 1"
       inkscape:vp_y="0 : 1000 : 0"
       inkscape:vp_x="0 : 0.5 : 1"
       sodipodi:type="inkscape:persp3d" />
    <radialGradient
       inkscape:collect="always"
       xlink:href="#linearGradient5105-262-943-861-1"
       id="radialGradient3164"
       gradientUnits="userSpaceOnUse"
       gradientTransform="matrix(1.3298236,0,0,0.36570222,8.8421878,38.437065)"
       cx="11.25"
       cy="19.03125"
       fx="11.25"
       fy="19.03125"
       r="8.0625" />
    <linearGradient
       id="linearGradient5105-262-943-861-1">
      <stop
         id="stop2487-0"
         style="stop-color:#0d0d0d;stop-opacity:1"
         offset="0" />
      <stop
         id="stop2489-6"
         style="stop-color:#0d0d0d;stop-opacity:0"
         offset="1" />
    </linearGradient>
    <radialGradient
       r="8.0625"
       fy="19.03125"
       fx="11.25"
       cy="19.03125"
       cx="11.25"
       gradientTransform="matrix(1.240309,0,0,0.34108565,10.046516,31.258721)"
       gradientUnits="userSpaceOnUse"
       id="radialGradient2955"
       xlink:href="#linearGradient5105-262-943-861-1"
       inkscape:collect="always" />
  </defs>
  <rect
     style="opacity:0.3;fill:url(#linearGradient2915);fill-opacity:1;fill-rule:nonzero;stroke:none;stroke-width:1;marker:none;visibility:visible;display:inline;overflow:visible"
     id="rect2879"
     y="42.429947"
     x="7.7378473"
     height="3.5700529"
     width="32.508301" />
  <path
     style="opacity:0.3;fill:url(#radialGradient2912);fill-opacity:1;fill-rule:nonzero;stroke:none;stroke-width:1;marker:none;visibility:visible;display:inline;overflow:visible"
     id="path2881"
     d="m 7.7378475,42.430102 c 0,0 0,3.569856 0,3.569856 -1.1865002,0.0067 -2.8683795,-0.799823 -2.8683795,-1.785158 0,-0.985333 1.3240446,-1.784697 2.8683795,-1.784698 z" />
  <path
     style="opacity:0.3;fill:url(#radialGradient2909);fill-opacity:1;fill-rule:nonzero;stroke:none;stroke-width:1;marker:none;visibility:visible;display:inline;overflow:visible"
     id="path2883"
     d="m 40.246148,42.430102 c 0,0 0,3.569856 0,3.569856 1.1865,0.0067 2.86838,-0.799823 2.86838,-1.785158 0,-0.985333 -1.324045,-1.784697 -2.86838,-1.784698 z" />
  <path
     style="fill:url(#linearGradient2904);fill-opacity:1;stroke:url(#linearGradient2906);stroke-width:0.99992186;stroke-linecap:butt;stroke-linejoin:round;stroke-miterlimit:4;stroke-opacity:1;stroke-dasharray:none;stroke-dashoffset:0;display:inline"
     id="path4160"
     d="m 6.4999609,0.49719878 c 8.0202951,0 16.0405901,0 24.0608861,0 1.406933,0.4746531 8.965454,5.88220462 10.939195,9.62640622 0,11.459733 0,22.919465 0,34.379198 -11.666694,0 -23.333387,0 -35.0000811,0 0,-14.668535 0,-29.33707 0,-44.00560422 z" />
  <path
     style="fill:url(#radialGradient2901);fill-opacity:1"
     id="path4191"
     d="m 7.3617017,44 c -0.199297,0 -0.361702,-0.175459 -0.361702,-0.39078 l 0,-42.2040499 c 0,-0.2157088 0.162405,-0.3907775 0.361702,-0.3907775 C 14.844793,1.1224073 23.137385,0.85281757 30.611384,1.0412872 L 40.894021,9.9073127 41,43.60922 C 41,43.824541 40.837957,44 40.638297,44 L 7.3617017,44 z" />
  <path
     style="opacity:0.6;fill:none;stroke:url(#linearGradient2898);stroke-width:0.9999218;stroke-linecap:butt;stroke-linejoin:round;stroke-miterlimit:4;stroke-opacity:1;stroke-dasharray:none;stroke-dashoffset:0;display:inline"
     id="path2435"
     d="m 40.500039,10.258811 c 0,10.949037 0,22.31441 0,33.263447 -11.000026,0 -22.000052,0 -33.0000781,0 0,-14.014841 0,-28.029681 0,-42.0445213 7.5619931,0 15.3043341,0 22.8663281,0" />
  <path
     style="opacity:0.4;fill:#000000;fill-opacity:1;fill-rule:evenodd;stroke:none;display:inline;filter:url(#filter3212)"
     id="path12038"
     d="m 28.617256,0.92125832 c 4.282522,0 2.15325,8.48317128 2.15325,8.48317128 0,0 10.357642,-1.8023467 10.357642,2.8187444 0,-2.6097233 -11.302304,-10.7285956 -12.510892,-11.30191568 z" />
  <text
     id="text3979"
     y="11.252789"
     x="10.19547"
     style="font-size:8.14127827px;font-style:normal;font-weight:normal;text-align:start;text-anchor:start;fill:#000000;fill-opacity:1;stroke:none;display:inline;enable-background:new;font-family:Bitstream Vera Sans"
     xml:space="preserve"
     transform="scale(0.97151847,1.0293165)"><tspan
       style="font-style:normal;font-variant:normal;font-weight:normal;font-stretch:normal;font-family:FreeSerif;-inkscape-font-specification:FreeSerif"
       y="11.252789"
       x="10.19547"
       id="tspan3981"
       sodipodi:role="line">NEWS</tspan></text>
  <path
     style="fill:url(#linearGradient2894);fill-opacity:1;fill-rule:evenodd;stroke:none;display:inline"
     id="path4474"
     d="m 28.617256,0.92125832 c 3.186493,0 2.33576,7.66187848 2.33576,7.66187848 0,0 10.175132,-0.9810539 10.175132,3.6400372 0,-1.125939 0.08591,-1.932245 -0.133777,-2.2835928 C 39.416058,7.4154025 32.598855,1.7511811 30.137071,1.008793 29.952849,0.95323837 29.544367,0.92125832 28.617256,0.92125832 z" />
  <path
     d="m 11,29 2.345838,0 0,1 L 11,30 11,29 z m 2.665379,0 2.213403,0 0,1 -2.213403,0 0,-1 z m 2.532944,0 1.948514,0 0,1 -1.948514,0 0,-1 z m 2.268056,0 0.855871,0 0,1 -0.855871,0 0,-1 z m 1.175422,0 1.915398,0 0,1 -1.915398,0 0,-1 z m 2.234949,0 4.961553,0 0,1 -4.961553,0 0,-1 z m 5.281094,0 3.769581,0 0,1 -3.769581,0 0,-1 z m 4.089133,0 1.153856,0 0,1 -1.153856,0 0,-1 0,0 z M 32.720385,29 35,29 l 0,1 -2.279615,0 0,-1 0,0 z M 11,37 l 3.691817,0 0,1 L 11,38 11,37 z m 3.965761,0 1.776154,0 0,1 -1.776154,0 0,-1 0,0 z m 2.15092,0 0.835125,0 0,1 -0.835125,0 0,-1 z m 1.041852,0 1.608114,0 0,1 -1.608114,0 0,-1 z m 1.882048,0 1.608115,0 0,1 -1.608115,0 0,-1 z m 2.117317,0 2.582748,0 0,1 -2.582748,0 0,-1 z m 2.890296,0 3.389342,0 0,1 -3.389342,0 0,-1 z m 3.864929,0 2.280283,0 0,1 -2.280283,0 0,-1 z M 31.467341,37 32,37 l 0,1 -0.532659,0 0,-1 0,0 z M 11,31 l 3.928045,0 0,1 L 11,32 11,31 z m 4.235965,0 4.208949,0 0,1 -4.208949,0 0,-1 0,0 z m 4.516869,0 1.680758,0 0,1 -1.680758,0 0,-1 z m 1.988678,0 3.959254,0 0,1 -3.959254,0 0,-1 0,0 z m 7.285852,0 1.056505,0 0,1 -1.056505,0 0,-1 z m -3.018678,0 2.710758,0 0,1 -2.710758,0 0,-1 z m 4.383104,0 0.619532,0 0,1 -0.619532,0 0,-1 z M 31.319242,31 33,31 l 0,1 -1.680758,0 0,-1 z M 11,33 l 4.28514,0 0,1 L 11,34 11,33 z m 4.621053,0 4.59158,0 0,1 -4.59158,0 0,-1 0,0 z m 4.927493,0 1.833555,0 0,1 -1.833555,0 0,-1 z m 2.169468,0 4.319185,0 0,1 -4.319185,0 0,-1 0,0 z m 7.948201,0 1.152552,0 0,1 -1.152552,0 0,-1 z m -3.293103,0 2.95719,0 0,1 -2.95719,0 0,-1 z m 4.781568,0 0.675853,0 0,1 -0.675853,0 0,-1 z M 33.166446,33 35,33 l 0,1 -1.833554,0 0,-1 z M 11,27 l 3.061572,0 0,1 L 11,28 11,27 z m 3.38681,0 5.083544,0 0,1 -5.083544,0 0,-1 z m 5.408782,0 2.454976,0 0,1 -2.454976,0 0,-1 z m 5.39193,0 1.949485,0 0,1 -1.949485,0 0,-1 z m 2.274723,0 3.128973,0 0,1 -3.128973,0 0,-1 z M 30.916446,27 36,27 l 0,1 -5.083554,0 0,-1 0,0 z m -8.34064,0 2.286488,0 0,1 -2.286488,0 0,-1 z M 25,15 l 5.927425,0 0,1 L 25,16 25,15 z m 6.246977,0 1.153856,0 0,1 -1.153856,0 0,-1 0,0 z M 32.720385,15 35,15 l 0,1 -2.279615,0 0,-1 0,0 z M 25,17 l 3.51316,0 0,1 L 25,18 25,17 z m 3.850118,0 2.280274,0 0,1 -2.280274,0 0,-1 z M 31.46735,17 32,17 l 0,1 -0.53265,0 0,-1 z m -4.430151,4 0,1 0,-1 z m 3.629016,0 1.152552,0 0,1 -1.152552,0 0,-1 z m -3.293103,0 2.95719,0 0,1 -2.95719,0 0,-1 z m 4.781568,0 0.675853,0 0,1 -0.675853,0 0,-1 z M 33.166446,21 35,21 l 0,1 -1.833554,0 0,-1 z M 25,19 l 2.137007,0 0,1 L 25,20 25,19 z m 2.462245,0 3.128973,0 0,1 -3.128973,0 0,-1 z M 30.916446,19 36,19 l 0,1 -5.083554,0 0,-1 0,0 z M 11,39 l 3.061572,0 0,1 L 11,40 11,39 z m 3.38681,0 5.083544,0 0,1 -5.083544,0 0,-1 z m 5.408782,0 2.454976,0 0,1 -2.454976,0 0,-1 z m 5.39193,0 1.949485,0 0,1 -1.949485,0 0,-1 z m 2.274723,0 3.128973,0 0,1 -3.128973,0 0,-1 z M 30.916446,39 36,39 l 0,1 -5.083554,0 0,-1 0,0 z m -8.34064,0 2.286488,0 0,1 -2.286488,0 0,-1 z"
     id="path3406"
     style="opacity:0.7;fill:url(#linearGradient2881);fill-opacity:1;stroke:none;display:inline"
     sodipodi:nodetypes="ccccccccccccccccccccccccccccccccccccccccccccccccccccccccccccccccccccccccccccccccccccccccccccccccccccccccccccccccccccccccccccccccccccccccccccccccccccccccccccccccccccccccccccccccccccccccccccccccccccccccccccccccccccccccccccccccccccccccccccccccccccccccccccccccccccccccccccccccccccccccccccccccccccccccccccccccccccccccccccccccc" />
  <rect
     inkscape:r_cy="true"
     inkscape:r_cx="true"
     ry="1.1205355"
     rx="1.3913406"
     y="15"
     x="10"
     height="10"
     width="14"
     id="rect2377"
     style="opacity:0.3976608;fill:#8d8d8d;fill-opacity:1;fill-rule:evenodd;stroke:none;stroke-width:1;marker:none;visibility:visible;display:inline;overflow:visible;enable-background:new" />
  <rect
     ry="0.52376622"
     rx="0.7293961"
     y="16"
     x="11"
     height="8"
     width="12"
     id="rect2383"
     style="opacity:0.48538011;fill:url(#linearGradient2946-4);fill-opacity:1;fill-rule:evenodd;stroke:none;stroke-width:1;marker:none;visibility:visible;display:inline;overflow:visible;enable-background:new"
     inkscape:r_cx="true"
     inkscape:r_cy="true" />
  <path
     style="opacity:0.15;fill:url(#radialGradient2955);fill-opacity:1;fill-rule:nonzero;stroke:none;stroke-width:1;marker:none;visibility:visible;display:inline;overflow:visible;enable-background:new"
     id="path4346"
     d="m 33.999983,37.75 c 0,1.518783 -4.477149,2.75 -9.999993,2.75 C 18.477149,40.5 14,39.268783 14,37.75 14,36.231215 18.477149,35 23.99999,35 c 5.522844,0 9.999993,1.231215 9.999993,2.75 l 0,0 z"
     inkscape:export-xdpi="360"
     inkscape:export-ydpi="360" />
  <path
     style="fill:url(#linearGradient2886);fill-opacity:1;fill-rule:nonzero;stroke:url(#linearGradient2888);stroke-width:1;stroke-linecap:round;stroke-linejoin:round;stroke-miterlimit:4;stroke-opacity:0.88235504;stroke-dasharray:none;stroke-dashoffset:0;marker:none;visibility:visible;display:inline;overflow:visible"
     id="path3288"
     d="M 34.5,26.492713 23.983402,37.5 13.5,26.492713 l 5.007286,0 0,-12.999998 11,0 0,12.999998 4.992714,0 z"
     sodipodi:nodetypes="cccccccc" />
  <path
     style="opacity:0.35400008;fill:none;stroke:url(#linearGradient2883);stroke-width:1;stroke-linecap:butt;stroke-linejoin:miter;stroke-miterlimit:4;stroke-opacity:1;stroke-dasharray:none;stroke-dashoffset:0;marker:none;visibility:visible;display:inline;overflow:visible"
     id="path3290"
     d="M 32.126,27.467945 24.038538,36 15.9,27.467945 l 3.638501,0 0,-12.999998 9.000075,0 0,12.999998 3.587424,0 z"
     sodipodi:nodetypes="cccccccc" />
</svg>
